<mxfile host="app.diagrams.net" modified="2020-10-22T08:37:11.164Z" agent="5.0 (Windows NT 10.0; Win64; x64) AppleWebKit/537.36 (KHTML, like Gecko) Chrome/86.0.4240.75 Safari/537.36" etag="b0NlzuwnfLUCEwF7zsVC" version="13.8.1" type="github">
  <diagram name="Page-1" id="e3a06f82-3646-2815-327d-82caf3d4e204">
    <mxGraphModel dx="2844" dy="1524" grid="1" gridSize="10" guides="1" tooltips="1" connect="1" arrows="1" fold="1" page="1" pageScale="1.5" pageWidth="1169" pageHeight="826" background="none" math="0" shadow="0">
      <root>
        <mxCell id="0" style=";html=1;" />
        <mxCell id="1" style=";html=1;" parent="0" />
        <mxCell id="24" value="x" style="rounded=0;whiteSpace=wrap;html=1;strokeWidth=4;fillColor=#D9D9D9;" parent="1" vertex="1">
          <mxGeometry x="510" y="200" width="1320" height="1034" as="geometry" />
        </mxCell>
        <mxCell id="77" value="" style="rounded=0;whiteSpace=wrap;html=1;strokeWidth=4;strokeColor=none;fillColor=#FFDEC2;" parent="1" vertex="1">
          <mxGeometry x="1392" y="360" width="430" height="430" as="geometry" />
        </mxCell>
        <mxCell id="78" value="" style="rounded=0;whiteSpace=wrap;html=1;strokeWidth=4;strokeColor=none;fillColor=#DDFFCF;imageAspect=1;" parent="1" vertex="1">
          <mxGeometry x="517" y="360" width="430" height="430" as="geometry" />
        </mxCell>
        <mxCell id="76" value="" style="rounded=0;whiteSpace=wrap;html=1;strokeWidth=4;strokeColor=none;fillColor=#C7ECFF;" parent="1" vertex="1">
          <mxGeometry x="955" y="360" width="430" height="430" as="geometry" />
        </mxCell>
        <mxCell id="75" value="" style="rounded=0;whiteSpace=wrap;html=1;strokeWidth=4;strokeColor=none;fillColor=#FFD3CC;" parent="1" vertex="1">
          <mxGeometry x="955" y="797" width="430" height="430" as="geometry" />
        </mxCell>
        <mxCell id="30" value="" style="rounded=0;whiteSpace=wrap;html=1;strokeWidth=4;fillColor=#D9D9D9;" parent="1" vertex="1">
          <mxGeometry x="2050" y="200" width="500" height="630" as="geometry" />
        </mxCell>
        <mxCell id="47" style="edgeStyle=orthogonalEdgeStyle;rounded=0;orthogonalLoop=1;jettySize=auto;html=1;endArrow=none;endFill=0;strokeColor=#474747;strokeWidth=5;" parent="1" source="2" target="4" edge="1">
          <mxGeometry relative="1" as="geometry" />
        </mxCell>
        <mxCell id="2" value="" style="fontColor=#0066CC;verticalAlign=top;verticalLabelPosition=bottom;labelPosition=center;align=center;html=1;outlineConnect=0;gradientColor=none;gradientDirection=north;strokeWidth=2;shape=mxgraph.networks.server;strokeColor=none;fillColor=#15516E;flipH=0;" parent="1" vertex="1">
          <mxGeometry x="683" y="426" width="90" height="100" as="geometry" />
        </mxCell>
        <mxCell id="46" style="edgeStyle=orthogonalEdgeStyle;rounded=0;orthogonalLoop=1;jettySize=auto;html=1;endArrow=none;endFill=0;strokeColor=#474747;strokeWidth=5;" parent="1" source="3" target="2" edge="1">
          <mxGeometry relative="1" as="geometry" />
        </mxCell>
        <mxCell id="65" style="edgeStyle=orthogonalEdgeStyle;rounded=0;orthogonalLoop=1;jettySize=auto;html=1;endArrow=none;endFill=0;strokeColor=#474747;strokeWidth=5;entryX=1;entryY=0.5;entryDx=0;entryDy=0;" parent="1" source="3" target="72" edge="1">
          <mxGeometry relative="1" as="geometry">
            <mxPoint x="380" y="476" as="targetPoint" />
          </mxGeometry>
        </mxCell>
        <mxCell id="3" value="" style="fontColor=#0066CC;verticalAlign=top;verticalLabelPosition=bottom;labelPosition=center;align=center;html=1;outlineConnect=0;gradientColor=none;gradientDirection=north;strokeWidth=2;shape=mxgraph.networks.firewall;aspect=fixed;flipH=0;fillColor=#474747;strokeColor=#D9D9D9;" parent="1" vertex="1">
          <mxGeometry x="480" y="445.99999999999994" width="60" height="60" as="geometry" />
        </mxCell>
        <mxCell id="48" style="edgeStyle=orthogonalEdgeStyle;rounded=0;orthogonalLoop=1;jettySize=auto;html=1;endArrow=none;endFill=0;strokeColor=#474747;strokeWidth=5;" parent="1" source="4" target="5" edge="1">
          <mxGeometry relative="1" as="geometry" />
        </mxCell>
        <mxCell id="4" value="" style="fontColor=#0066CC;verticalAlign=top;verticalLabelPosition=bottom;labelPosition=center;align=center;html=1;outlineConnect=0;gradientColor=none;gradientDirection=north;strokeWidth=2;shape=mxgraph.networks.firewall;aspect=fixed;flipH=0;fillColor=#474747;strokeColor=#D9D9D9;" parent="1" vertex="1">
          <mxGeometry x="917" y="445.99999999999994" width="60" height="60" as="geometry" />
        </mxCell>
        <mxCell id="41" style="edgeStyle=orthogonalEdgeStyle;rounded=0;orthogonalLoop=1;jettySize=auto;html=1;endArrow=none;endFill=0;strokeColor=#474747;strokeWidth=5;" parent="1" source="5" edge="1">
          <mxGeometry relative="1" as="geometry">
            <mxPoint x="1166" y="580" as="targetPoint" />
            <Array as="points">
              <mxPoint x="1166" y="621" />
            </Array>
          </mxGeometry>
        </mxCell>
        <mxCell id="49" style="edgeStyle=orthogonalEdgeStyle;rounded=0;orthogonalLoop=1;jettySize=auto;html=1;entryX=0;entryY=0.5;entryDx=0;entryDy=0;entryPerimeter=0;endArrow=none;endFill=0;strokeColor=#474747;strokeWidth=5;exitX=0.88;exitY=0.5;exitDx=0;exitDy=0;exitPerimeter=0;" parent="1" source="5" target="10" edge="1">
          <mxGeometry relative="1" as="geometry" />
        </mxCell>
        <mxCell id="5" value="" style="fontColor=#0066CC;verticalAlign=top;verticalLabelPosition=bottom;labelPosition=center;align=center;html=1;outlineConnect=0;gradientColor=none;gradientDirection=north;strokeWidth=2;shape=mxgraph.networks.server_storage;fillColor=#15516E;strokeColor=#FFFFFF;" parent="1" vertex="1">
          <mxGeometry x="1113" y="423.50000000000006" width="105" height="105" as="geometry" />
        </mxCell>
        <mxCell id="42" style="edgeStyle=orthogonalEdgeStyle;rounded=0;orthogonalLoop=1;jettySize=auto;html=1;entryX=0.5;entryY=0;entryDx=0;entryDy=0;entryPerimeter=0;endArrow=none;endFill=0;strokeColor=#474747;strokeWidth=5;" parent="1" source="6" target="9" edge="1">
          <mxGeometry relative="1" as="geometry" />
        </mxCell>
        <mxCell id="6" value="" style="fontColor=#0066CC;verticalAlign=top;verticalLabelPosition=bottom;labelPosition=center;align=center;html=1;outlineConnect=0;gradientColor=none;gradientDirection=north;strokeWidth=2;shape=mxgraph.networks.server_storage;fillColor=#15516E;strokeColor=#FFFFFF;" parent="1" vertex="1">
          <mxGeometry x="1270" y="590" width="105" height="105" as="geometry" />
        </mxCell>
        <mxCell id="44" style="edgeStyle=orthogonalEdgeStyle;rounded=0;orthogonalLoop=1;jettySize=auto;html=1;entryX=0.5;entryY=0;entryDx=0;entryDy=0;entryPerimeter=0;endArrow=none;endFill=0;strokeColor=#474747;strokeWidth=5;" parent="1" source="7" target="11" edge="1">
          <mxGeometry relative="1" as="geometry" />
        </mxCell>
        <mxCell id="7" value="" style="fontColor=#0066CC;verticalAlign=top;verticalLabelPosition=bottom;labelPosition=center;align=center;html=1;outlineConnect=0;gradientColor=none;gradientDirection=north;strokeWidth=2;shape=mxgraph.networks.web_server;fillColor=#15516E;strokeColor=#FFFFFF;" parent="1" vertex="1">
          <mxGeometry x="1113" y="958.5" width="105" height="105" as="geometry" />
        </mxCell>
        <mxCell id="43" style="edgeStyle=orthogonalEdgeStyle;rounded=0;orthogonalLoop=1;jettySize=auto;html=1;endArrow=none;endFill=0;strokeColor=#474747;strokeWidth=5;" parent="1" source="9" target="7" edge="1">
          <mxGeometry relative="1" as="geometry" />
        </mxCell>
        <mxCell id="9" value="" style="fontColor=#0066CC;verticalAlign=top;verticalLabelPosition=bottom;labelPosition=center;align=center;html=1;outlineConnect=0;gradientColor=none;gradientDirection=north;strokeWidth=2;shape=mxgraph.networks.firewall;aspect=fixed;fillColor=#474747;strokeColor=#D9D9D9;" parent="1" vertex="1">
          <mxGeometry x="1135.5" y="760" width="60" height="60" as="geometry" />
        </mxCell>
        <mxCell id="50" style="edgeStyle=orthogonalEdgeStyle;rounded=0;orthogonalLoop=1;jettySize=auto;html=1;entryX=0;entryY=0.5;entryDx=0;entryDy=0;entryPerimeter=0;endArrow=none;endFill=0;strokeColor=#474747;strokeWidth=5;" parent="1" source="10" target="14" edge="1">
          <mxGeometry relative="1" as="geometry" />
        </mxCell>
        <mxCell id="10" value="" style="fontColor=#0066CC;verticalAlign=top;verticalLabelPosition=bottom;labelPosition=center;align=center;html=1;outlineConnect=0;gradientColor=none;gradientDirection=north;strokeWidth=2;shape=mxgraph.networks.firewall;aspect=fixed;fillColor=#474747;strokeColor=#D9D9D9;" parent="1" vertex="1">
          <mxGeometry x="1353" y="445.99999999999994" width="60" height="60" as="geometry" />
        </mxCell>
        <mxCell id="90" style="edgeStyle=orthogonalEdgeStyle;rounded=0;orthogonalLoop=1;jettySize=auto;html=1;endArrow=none;endFill=0;strokeColor=#474747;strokeWidth=5;fontSize=33;" parent="1" source="11" target="73" edge="1">
          <mxGeometry relative="1" as="geometry" />
        </mxCell>
        <mxCell id="11" value="" style="fontColor=#0066CC;verticalAlign=top;verticalLabelPosition=bottom;labelPosition=center;align=center;html=1;outlineConnect=0;gradientColor=none;gradientDirection=north;strokeWidth=2;shape=mxgraph.networks.firewall;aspect=fixed;fillColor=#474747;strokeColor=none;" parent="1" vertex="1">
          <mxGeometry x="1135.5" y="1200" width="60" height="60" as="geometry" />
        </mxCell>
        <mxCell id="13" value="" style="fontColor=#0066CC;verticalAlign=top;verticalLabelPosition=bottom;labelPosition=center;align=center;html=1;outlineConnect=0;gradientColor=none;gradientDirection=north;strokeWidth=2;shape=mxgraph.networks.mobile;strokeColor=none;fillColor=#474747;" parent="1" vertex="1">
          <mxGeometry x="1138" y="1505" width="55" height="110" as="geometry" />
        </mxCell>
        <mxCell id="51" style="edgeStyle=orthogonalEdgeStyle;rounded=0;orthogonalLoop=1;jettySize=auto;html=1;entryX=0;entryY=0.5;entryDx=0;entryDy=0;entryPerimeter=0;endArrow=none;endFill=0;strokeColor=#474747;strokeWidth=5;" parent="1" source="14" target="15" edge="1">
          <mxGeometry relative="1" as="geometry" />
        </mxCell>
        <mxCell id="14" value="" style="fontColor=#0066CC;verticalAlign=top;verticalLabelPosition=bottom;labelPosition=center;align=center;html=1;outlineConnect=0;gradientColor=none;gradientDirection=north;strokeWidth=2;shape=mxgraph.networks.server;strokeColor=none;fillColor=#15516E;" parent="1" vertex="1">
          <mxGeometry x="1557" y="425.99999999999994" width="90" height="100" as="geometry" />
        </mxCell>
        <mxCell id="15" value="" style="fontColor=#0066CC;verticalAlign=top;verticalLabelPosition=bottom;labelPosition=center;align=center;html=1;outlineConnect=0;gradientColor=none;gradientDirection=north;strokeWidth=2;shape=mxgraph.networks.firewall;aspect=fixed;fillColor=#474747;strokeColor=#D9D9D9;" parent="1" vertex="1">
          <mxGeometry x="1790" y="446.00000000000006" width="60" height="60" as="geometry" />
        </mxCell>
        <mxCell id="16" value="" style="fontColor=#0066CC;verticalAlign=top;verticalLabelPosition=bottom;labelPosition=center;align=center;html=1;outlineConnect=0;gradientColor=none;gradientDirection=north;strokeWidth=2;shape=mxgraph.networks.firewall;aspect=fixed;fillColor=#474747;strokeColor=#D9D9D9;" parent="1" vertex="1">
          <mxGeometry x="2020" y="446.00000000000006" width="60" height="60" as="geometry" />
        </mxCell>
        <mxCell id="32" value="" style="shape=cylinder2;whiteSpace=wrap;html=1;boundedLbl=1;backgroundOutline=1;size=3.1191860465116292;strokeColor=#000000;strokeWidth=2;rotation=90;fillColor=none;" parent="1" vertex="1">
          <mxGeometry x="1929.56" y="392.19" width="10.25" height="167.38" as="geometry" />
        </mxCell>
        <mxCell id="52" value="" style="group" parent="1" vertex="1" connectable="0">
          <mxGeometry x="2299.9999999999995" y="386.5" width="126" height="79" as="geometry" />
        </mxCell>
        <mxCell id="17" value="" style="pointerEvents=1;shadow=0;dashed=0;html=1;strokeColor=none;fillColor=#505050;labelPosition=center;verticalLabelPosition=bottom;verticalAlign=top;outlineConnect=0;align=center;shape=mxgraph.office.users.call_center_agent;flipV=0;" parent="52" vertex="1">
          <mxGeometry x="79.99999999999962" y="24" width="46" height="55" as="geometry" />
        </mxCell>
        <mxCell id="18" value="" style="fontColor=#0066CC;verticalAlign=top;verticalLabelPosition=bottom;labelPosition=center;align=center;html=1;outlineConnect=0;gradientColor=none;gradientDirection=north;strokeWidth=2;shape=mxgraph.networks.terminal;strokeColor=none;fillColor=#15516E;" parent="52" vertex="1">
          <mxGeometry width="80" height="65" as="geometry" />
        </mxCell>
        <mxCell id="59" value="" style="group" parent="1" vertex="1" connectable="0">
          <mxGeometry x="2300" y="535.5" width="126" height="79" as="geometry" />
        </mxCell>
        <mxCell id="60" value="" style="pointerEvents=1;shadow=0;dashed=0;html=1;strokeColor=none;fillColor=#505050;labelPosition=center;verticalLabelPosition=bottom;verticalAlign=top;outlineConnect=0;align=center;shape=mxgraph.office.users.call_center_agent;flipV=0;" parent="59" vertex="1">
          <mxGeometry x="79.99999999999962" y="24" width="46" height="55" as="geometry" />
        </mxCell>
        <mxCell id="61" value="" style="fontColor=#0066CC;verticalAlign=top;verticalLabelPosition=bottom;labelPosition=center;align=center;html=1;outlineConnect=0;gradientColor=none;gradientDirection=north;strokeWidth=2;shape=mxgraph.networks.terminal;strokeColor=none;fillColor=#15516E;" parent="59" vertex="1">
          <mxGeometry width="80" height="65" as="geometry" />
        </mxCell>
        <mxCell id="62" value="" style="group" parent="1" vertex="1" connectable="0">
          <mxGeometry x="2300" y="681" width="126" height="79" as="geometry" />
        </mxCell>
        <mxCell id="63" value="" style="pointerEvents=1;shadow=0;dashed=0;html=1;strokeColor=none;fillColor=#505050;labelPosition=center;verticalLabelPosition=bottom;verticalAlign=top;outlineConnect=0;align=center;shape=mxgraph.office.users.call_center_agent;flipV=0;" parent="62" vertex="1">
          <mxGeometry x="79.99999999999962" y="24" width="46" height="55" as="geometry" />
        </mxCell>
        <mxCell id="64" value="" style="fontColor=#0066CC;verticalAlign=top;verticalLabelPosition=bottom;labelPosition=center;align=center;html=1;outlineConnect=0;gradientColor=none;gradientDirection=north;strokeWidth=2;shape=mxgraph.networks.terminal;strokeColor=none;fillColor=#15516E;" parent="62" vertex="1">
          <mxGeometry width="80" height="65" as="geometry" />
        </mxCell>
        <mxCell id="66" value="&lt;font style=&quot;font-size: 50px&quot;&gt;LGWAN&lt;/font&gt;" style="text;html=1;strokeColor=none;fillColor=none;align=center;verticalAlign=middle;whiteSpace=wrap;rounded=0;fontStyle=1" parent="1" vertex="1">
          <mxGeometry x="140" y="360" width="180" height="40" as="geometry" />
        </mxCell>
        <mxCell id="69" value="&lt;font style=&quot;font-size: 50px&quot; color=&quot;#ffffff&quot;&gt;&lt;b&gt;IDC&lt;/b&gt;&lt;/font&gt;" style="text;html=1;strokeColor=none;align=center;verticalAlign=middle;whiteSpace=wrap;rounded=0;fillColor=#1255A2;" parent="1" vertex="1">
          <mxGeometry x="530" y="221.4" width="250" height="78.6" as="geometry" />
        </mxCell>
        <mxCell id="71" value="&lt;span style=&quot;font-size: 50px&quot;&gt;&lt;b&gt;&lt;font color=&quot;#ffffff&quot;&gt;BPOセンター&lt;/font&gt;&lt;/b&gt;&lt;br&gt;&lt;/span&gt;" style="text;html=1;strokeColor=none;align=center;verticalAlign=middle;whiteSpace=wrap;rounded=0;fillColor=#1255A2;" parent="1" vertex="1">
          <mxGeometry x="2070" y="221.4" width="460" height="74.85" as="geometry" />
        </mxCell>
        <mxCell id="72" value="" style="shape=sumEllipse;perimeter=ellipsePerimeter;whiteSpace=wrap;html=1;backgroundOutline=1;strokeColor=#000000;strokeWidth=4;align=left;fillColor=none;" parent="1" vertex="1">
          <mxGeometry x="200" y="435.88" width="80" height="80" as="geometry" />
        </mxCell>
        <mxCell id="91" style="edgeStyle=orthogonalEdgeStyle;rounded=0;orthogonalLoop=1;jettySize=auto;html=1;endArrow=none;endFill=0;strokeColor=#474747;strokeWidth=5;fontSize=33;" parent="1" source="73" edge="1">
          <mxGeometry relative="1" as="geometry">
            <mxPoint x="1165.5" y="1500" as="targetPoint" />
          </mxGeometry>
        </mxCell>
        <mxCell id="73" value="" style="shape=sumEllipse;perimeter=ellipsePerimeter;whiteSpace=wrap;html=1;backgroundOutline=1;strokeColor=#000000;strokeWidth=4;align=left;fillColor=none;" parent="1" vertex="1">
          <mxGeometry x="1125.5" y="1330" width="80" height="80" as="geometry" />
        </mxCell>
        <mxCell id="79" value="&lt;font style=&quot;font-size: 40px&quot;&gt;&lt;b&gt;VPN&lt;/b&gt;&lt;/font&gt;" style="text;html=1;strokeColor=none;fillColor=none;align=center;verticalAlign=middle;whiteSpace=wrap;rounded=0;" parent="1" vertex="1">
          <mxGeometry x="1892.02" y="423.5" width="85.32" height="40" as="geometry" />
        </mxCell>
        <mxCell id="84" value="&lt;font style=&quot;font-size: 33px;&quot;&gt;LG-Seg&lt;/font&gt;" style="text;html=1;strokeColor=none;fillColor=none;align=center;verticalAlign=middle;whiteSpace=wrap;rounded=0;fontSize=33;fontStyle=1" parent="1" vertex="1">
          <mxGeometry x="536" y="379.9999999999999" width="140" height="37.81" as="geometry" />
        </mxCell>
        <mxCell id="85" value="&lt;font style=&quot;font-size: 33px;&quot;&gt;DB-Seg&lt;/font&gt;" style="text;html=1;strokeColor=none;fillColor=none;align=center;verticalAlign=middle;whiteSpace=wrap;rounded=0;fontSize=33;fontStyle=1" parent="1" vertex="1">
          <mxGeometry x="976" y="380" width="144" height="37.81" as="geometry" />
        </mxCell>
        <mxCell id="86" value="&lt;font style=&quot;font-size: 33px;&quot;&gt;BPO-Seg&lt;/font&gt;" style="text;html=1;strokeColor=none;fillColor=none;align=center;verticalAlign=middle;whiteSpace=wrap;rounded=0;fontSize=33;fontStyle=1" parent="1" vertex="1">
          <mxGeometry x="1413" y="380" width="167" height="37.81" as="geometry" />
        </mxCell>
        <mxCell id="87" value="&lt;font style=&quot;font-size: 33px;&quot;&gt;Web-Seg&lt;/font&gt;" style="text;html=1;strokeColor=none;fillColor=none;align=center;verticalAlign=middle;whiteSpace=wrap;rounded=0;fontSize=33;fontStyle=1" parent="1" vertex="1">
          <mxGeometry x="965" y="810" width="155" height="37.81" as="geometry" />
        </mxCell>
        <mxCell id="88" value="&lt;font style=&quot;font-size: 24px ; line-height: 100%&quot;&gt;Web DB&lt;br style=&quot;font-size: 30px&quot;&gt;&lt;/font&gt;" style="text;html=1;strokeColor=none;fillColor=none;align=center;verticalAlign=middle;whiteSpace=wrap;rounded=0;fontSize=30;spacing=0;" parent="1" vertex="1">
          <mxGeometry x="1285" y="696.38" width="90" height="24.5" as="geometry" />
        </mxCell>
        <mxCell id="89" value="&lt;font style=&quot;font-size: 30px;&quot;&gt;DB&lt;br style=&quot;font-size: 30px;&quot;&gt;&lt;/font&gt;" style="text;html=1;strokeColor=none;fillColor=none;align=center;verticalAlign=middle;whiteSpace=wrap;rounded=0;fontSize=30;" parent="1" vertex="1">
          <mxGeometry x="1180" y="535.5" width="50" height="27.25" as="geometry" />
        </mxCell>
        <mxCell id="97" value="&lt;font style=&quot;font-size: 30px;&quot;&gt;AP&lt;br style=&quot;font-size: 30px;&quot;&gt;&lt;/font&gt;" style="text;html=1;strokeColor=none;fillColor=none;align=center;verticalAlign=middle;whiteSpace=wrap;rounded=0;fontSize=30;" parent="1" vertex="1">
          <mxGeometry x="1660" y="498.75" width="50" height="27.25" as="geometry" />
        </mxCell>
        <mxCell id="101" value="&lt;font style=&quot;font-size: 33px&quot;&gt;Web&lt;br&gt;&lt;/font&gt;" style="text;html=1;strokeColor=none;fillColor=none;align=center;verticalAlign=middle;whiteSpace=wrap;rounded=0;fontSize=33;" parent="1" vertex="1">
          <mxGeometry x="1230" y="1030.25" width="70" height="33.25" as="geometry" />
        </mxCell>
        <mxCell id="102" value="&lt;font style=&quot;font-size: 30px;&quot;&gt;AP&lt;br style=&quot;font-size: 30px;&quot;&gt;&lt;/font&gt;" style="text;html=1;strokeColor=none;fillColor=none;align=center;verticalAlign=middle;whiteSpace=wrap;rounded=0;fontSize=30;" parent="1" vertex="1">
          <mxGeometry x="773" y="501.38" width="50" height="27.25" as="geometry" />
        </mxCell>
        <mxCell id="103" style="edgeStyle=orthogonalEdgeStyle;rounded=0;orthogonalLoop=1;jettySize=auto;html=1;entryX=0;entryY=0.5;entryDx=0;entryDy=0;entryPerimeter=0;endArrow=none;endFill=0;strokeColor=#474747;strokeWidth=5;" parent="1" edge="1">
          <mxGeometry relative="1" as="geometry">
            <mxPoint x="2084" y="475.70999999999975" as="sourcePoint" />
            <mxPoint x="2227" y="475.70999999999975" as="targetPoint" />
            <Array as="points">
              <mxPoint x="2204" y="476.12" />
              <mxPoint x="2204" y="476.12" />
            </Array>
          </mxGeometry>
        </mxCell>
        <mxCell id="104" style="edgeStyle=orthogonalEdgeStyle;rounded=0;orthogonalLoop=1;jettySize=auto;html=1;endArrow=none;endFill=0;strokeColor=#474747;strokeWidth=5;" parent="1" edge="1">
          <mxGeometry relative="1" as="geometry">
            <mxPoint x="2292.0299999999997" y="414.49" as="sourcePoint" />
            <mxPoint x="2292" y="710" as="targetPoint" />
            <Array as="points">
              <mxPoint x="2230" y="415" />
              <mxPoint x="2230" y="710" />
              <mxPoint x="2292" y="710" />
            </Array>
          </mxGeometry>
        </mxCell>
        <mxCell id="107" style="edgeStyle=orthogonalEdgeStyle;rounded=0;orthogonalLoop=1;jettySize=auto;html=1;endArrow=none;endFill=0;strokeColor=#474747;strokeWidth=5;" parent="1" edge="1">
          <mxGeometry relative="1" as="geometry">
            <mxPoint x="2232" y="559.5699999999999" as="sourcePoint" />
            <mxPoint x="2292" y="559.5699999999999" as="targetPoint" />
          </mxGeometry>
        </mxCell>
        <mxCell id="109" value="" style="fontColor=#0066CC;verticalAlign=top;verticalLabelPosition=bottom;labelPosition=center;align=center;html=1;outlineConnect=0;gradientColor=none;gradientDirection=north;strokeWidth=1;shape=mxgraph.networks.firewall;aspect=fixed;flipH=0;fillColor=#474747;strokeColor=#D9D9D9;" parent="1" vertex="1">
          <mxGeometry x="480" y="445.99999999999994" width="60" height="60" as="geometry" />
        </mxCell>
        <mxCell id="110" value="" style="fontColor=#0066CC;verticalAlign=top;verticalLabelPosition=bottom;labelPosition=center;align=center;html=1;outlineConnect=0;gradientColor=none;gradientDirection=north;strokeWidth=1;shape=mxgraph.networks.firewall;aspect=fixed;flipH=0;fillColor=#474747;strokeColor=#D9D9D9;" parent="1" vertex="1">
          <mxGeometry x="917" y="445.99999999999994" width="60" height="60" as="geometry" />
        </mxCell>
        <mxCell id="111" value="" style="fontColor=#0066CC;verticalAlign=top;verticalLabelPosition=bottom;labelPosition=center;align=center;html=1;outlineConnect=0;gradientColor=none;gradientDirection=north;strokeWidth=1;shape=mxgraph.networks.firewall;aspect=fixed;fillColor=#474747;strokeColor=none;" parent="1" vertex="1">
          <mxGeometry x="1353" y="445.99999999999994" width="60" height="60" as="geometry" />
        </mxCell>
        <mxCell id="112" value="" style="fontColor=#0066CC;verticalAlign=top;verticalLabelPosition=bottom;labelPosition=center;align=center;html=1;outlineConnect=0;gradientColor=none;gradientDirection=north;strokeWidth=1;shape=mxgraph.networks.firewall;aspect=fixed;fillColor=#474747;strokeColor=none;" parent="1" vertex="1">
          <mxGeometry x="1790" y="446.00000000000006" width="60" height="60" as="geometry" />
        </mxCell>
        <mxCell id="113" value="" style="fontColor=#0066CC;verticalAlign=top;verticalLabelPosition=bottom;labelPosition=center;align=center;html=1;outlineConnect=0;gradientColor=none;gradientDirection=north;strokeWidth=1;shape=mxgraph.networks.firewall;aspect=fixed;fillColor=#474747;strokeColor=none;" parent="1" vertex="1">
          <mxGeometry x="2020" y="446.00000000000006" width="60" height="60" as="geometry" />
        </mxCell>
        <mxCell id="114" value="" style="fontColor=#0066CC;verticalAlign=top;verticalLabelPosition=bottom;labelPosition=center;align=center;html=1;outlineConnect=0;gradientColor=none;gradientDirection=north;strokeWidth=1;shape=mxgraph.networks.firewall;aspect=fixed;fillColor=#474747;strokeColor=none;" parent="1" vertex="1">
          <mxGeometry x="1135.5" y="760" width="60" height="60" as="geometry" />
        </mxCell>
        <mxCell id="115" value="" style="fontColor=#0066CC;verticalAlign=top;verticalLabelPosition=bottom;labelPosition=center;align=center;html=1;outlineConnect=0;gradientColor=none;gradientDirection=north;strokeWidth=1;shape=mxgraph.networks.firewall;aspect=fixed;flipH=0;fillColor=#474747;strokeColor=none;" parent="1" vertex="1">
          <mxGeometry x="480" y="445.99999999999994" width="60" height="60" as="geometry" />
        </mxCell>
        <mxCell id="116" value="" style="fontColor=#0066CC;verticalAlign=top;verticalLabelPosition=bottom;labelPosition=center;align=center;html=1;outlineConnect=0;gradientColor=none;gradientDirection=north;strokeWidth=1;shape=mxgraph.networks.firewall;aspect=fixed;flipH=0;fillColor=#474747;strokeColor=none;" parent="1" vertex="1">
          <mxGeometry x="917" y="445.99999999999994" width="60" height="60" as="geometry" />
        </mxCell>
        <mxCell id="qfqCueSUGGqwcn_96cDv-116" value="" style="fontColor=#0066CC;verticalAlign=top;verticalLabelPosition=bottom;labelPosition=center;align=center;html=1;outlineConnect=0;gradientColor=none;gradientDirection=north;strokeWidth=2;shape=mxgraph.networks.server;strokeColor=none;fillColor=#15516E;flipH=0;" vertex="1" parent="1">
          <mxGeometry x="1113" y="590" width="90" height="100" as="geometry" />
        </mxCell>
        <mxCell id="qfqCueSUGGqwcn_96cDv-117" value="&lt;font style=&quot;font-size: 30px;&quot;&gt;AP&lt;br style=&quot;font-size: 30px;&quot;&gt;&lt;/font&gt;" style="text;html=1;strokeColor=none;fillColor=none;align=center;verticalAlign=middle;whiteSpace=wrap;rounded=0;fontSize=30;" vertex="1" parent="1">
          <mxGeometry x="1170" y="695" width="50" height="27.25" as="geometry" />
        </mxCell>
        <mxCell id="qfqCueSUGGqwcn_96cDv-125" value="&lt;b&gt;自治体用データ&lt;br&gt;（個人情報あり）&lt;/b&gt;" style="text;html=1;strokeColor=none;align=center;verticalAlign=middle;whiteSpace=wrap;rounded=0;labelBackgroundColor=none;fillColor=#1A1A1A;fontColor=#FFFFFF;" vertex="1" parent="1">
          <mxGeometry x="1121" y="382.5" width="100" height="34.31" as="geometry" />
        </mxCell>
        <mxCell id="qfqCueSUGGqwcn_96cDv-127" value="&lt;b&gt;住民用データ&lt;br&gt;（個人情報なし）&lt;/b&gt;" style="text;html=1;strokeColor=none;align=center;verticalAlign=middle;whiteSpace=wrap;rounded=0;labelBackgroundColor=none;fillColor=#1A1A1A;fontColor=#FFFFFF;" vertex="1" parent="1">
          <mxGeometry x="1270" y="550" width="100" height="34.31" as="geometry" />
        </mxCell>
      </root>
    </mxGraphModel>
  </diagram>
</mxfile>
